<svg xmlns="http://www.w3.org/2000/svg" width="39" height="39" viewBox="0 0 39 39" fill="none">
  <circle cx="19.5" cy="19.5" r="19.5" fill="#4272EC"/>
  <path d="M19.5 9C13.6987 9 9 13.6987 9 19.5C9 25.3013 13.6987 30 19.5 30C25.3013 30 30 25.3013 30 19.5C30 13.6987 25.3013 9 19.5 9ZM19.5 28.2499C14.6786 28.2499 10.7501 24.321 10.7501 19.5C10.7501 14.679 14.6787 10.7501 19.5 10.7501C24.3299 10.7501 28.2499 14.679 28.2499 19.5C28.2499 24.321 24.3299 28.2499 19.5 28.2499Z" fill="white"/>
  <circle cx="19.5" cy="19.5" r="6.5" fill="white"/>
</svg>