<svg xmlns="http://www.w3.org/2000/svg" width="39" height="39" viewBox="0 0 39 39" fill="none">
  <circle cx="19.5" cy="19.5" r="19.5" fill="#4272EC"/>
  <path d="M17.0614 20.93C17.0614 19.5589 19.8221 18.4475 23.2277 18.4475C26.6332 18.4475 29.394 19.5589 29.394 20.93C29.394 22.3011 26.6332 23.4125 23.2277 23.4125C19.8221 23.4125 17.0614 22.3011 17.0614 20.93ZM23.2277 24.5935C19.8223 24.5935 17.0614 23.4821 17.0614 22.111V23.2923C17.0614 24.6633 19.8221 25.7747 23.2277 25.7747C26.6331 25.7747 29.394 24.6633 29.394 23.2923V22.111C29.394 23.4821 26.6332 24.5935 23.2277 24.5935ZM23.2277 27.0227C19.8223 27.0227 17.0614 25.9113 17.0614 24.5402V25.7215C17.0614 27.0925 19.8221 28.2039 23.2277 28.2039C26.6331 28.2039 29.394 27.0925 29.394 25.7215V24.5402C29.394 25.9113 26.6332 27.0227 23.2277 27.0227ZM15.1663 15.965C18.5717 15.965 21.3326 14.8535 21.3326 13.4825C21.3326 12.1114 18.5719 11 15.1663 11C11.7609 11 9 12.1114 9 13.4825C9 14.8535 11.7607 15.965 15.1663 15.965ZM15.1663 17.146C11.7609 17.146 9 16.0346 9 14.6635V15.8447C9 17.2158 11.7607 18.3272 15.1663 18.3272C18.5717 18.3272 21.3326 17.2158 21.3326 15.8447V14.6635C21.3328 16.0346 18.5721 17.146 15.1663 17.146ZM15.1663 20.7562C15.53 20.7562 15.8861 20.7433 16.2326 20.719C16.2726 20.3723 16.4221 19.9298 16.8394 19.4825C16.3072 19.5427 15.7464 19.575 15.1663 19.575C11.7609 19.575 9 18.4636 9 17.0925V18.2737C9 19.6448 11.7607 20.7562 15.1663 20.7562ZM15.1663 23.132C15.5259 23.132 15.8777 23.1192 16.2202 23.0955V21.9144C15.8775 21.9381 15.5255 21.9509 15.1663 21.9509C11.7609 21.9509 9 20.8395 9 19.4685V20.6497C9 22.0206 11.7607 23.132 15.1663 23.132ZM16.2205 24.5401V24.2767C15.8779 24.3004 15.5258 24.3132 15.1667 24.3132C11.7613 24.3132 9.00035 23.2018 9.00035 21.8307V23.012C9.00035 24.383 11.7611 25.4944 15.1667 25.4944C15.526 25.4944 15.878 25.482 16.2205 25.4582V24.5401Z" fill="white"/>
</svg>