<svg xmlns="http://www.w3.org/2000/svg" width="39" height="39" viewBox="0 0 39 39" fill="none">
  <circle cx="19.5" cy="19.5" r="19.5" fill="#4272EC"/>
  <path d="M28.5728 19.8072L26.6582 17.8926C26.4029 17.6374 25.9987 17.6374 25.7647 17.8926L19.1061 24.5512C19.0849 24.5725 19.0636 24.5937 19.0636 24.615C18.9572 24.7001 18.8721 24.8277 18.8296 24.9554L18.1276 27.572C18.0425 27.9124 18.2339 28.2528 18.5743 28.3591C18.6807 28.3804 18.8083 28.3804 18.9359 28.3591L21.4887 27.572C21.6589 27.572 21.8291 27.5082 21.9355 27.3805L28.594 20.722C28.828 20.4667 28.828 20.0625 28.5728 19.8072ZM24.2968 21.1475L25.3179 22.1686L21.4675 26.0191L20.4463 24.9979L24.2968 21.1475ZM19.8081 26.168L20.2336 26.5934L19.638 26.7849L19.8081 26.168ZM26.2114 21.2751L25.2116 20.254L26.2114 19.2541L27.2325 20.2752L26.2114 21.2751Z" fill="white"/>
  <path d="M14.7443 18.6583H18.0842V19.4879C18.0842 19.8496 18.3607 20.1261 18.7224 20.1261H21.6581C22.0198 20.1261 22.2963 19.8496 22.2963 19.4879V16.5522C22.2963 16.1905 22.0198 15.914 21.6581 15.914H18.7224C18.3607 15.914 18.0842 16.1905 18.0842 16.5522V17.3819H14.7443V14.2121H15.5739C15.9356 14.2121 16.2121 13.9356 16.2121 13.5739V10.6382C16.2121 10.2766 15.9356 10 15.5739 10H12.6382C12.2766 10 12 10.2766 12 10.6382V13.5739C12 13.9356 12.2766 14.2121 12.6382 14.2121H13.4679V25.1892C13.4679 25.5508 13.7444 25.8274 14.1061 25.8274H17.5311V24.551H14.7443V18.6583ZM19.3606 17.1904H21.0199V18.8497H19.3606V17.1904ZM13.2764 11.2764H14.9357V12.9357H13.2764V11.2764Z" fill="white"/>
</svg>