<svg xmlns="http://www.w3.org/2000/svg" width="39" height="39" viewBox="0 0 39 39" fill="none">
  <circle cx="19.5" cy="19.5" r="19.5" fill="#4272EC"/>
  <path d="M16.8774 20.0785H20.3795V20.9484C20.3795 21.3276 20.6694 21.6176 21.0486 21.6176H24.1268C24.506 21.6176 24.796 21.3276 24.796 20.9484V17.8702C24.796 17.491 24.506 17.201 24.1268 17.201H21.0486C20.6694 17.201 20.3795 17.491 20.3795 17.8702V18.7401H16.8774V15.4166H17.7474C18.1266 15.4166 18.4166 15.1266 18.4166 14.7474V11.6692C18.4166 11.29 18.1266 11 17.7474 11H14.6692C14.29 11 14 11.29 14 11.6692V14.7474C14 15.1266 14.29 15.4166 14.6692 15.4166H15.5391V26.9263C15.5391 27.3055 15.8291 27.5955 16.2083 27.5955H20.2843V26.2572H16.8774V20.0785ZM21.7178 18.5394H23.4577V20.2792H21.7178V18.5394ZM15.3383 12.3383H17.0782V14.0782H15.3383V12.3383Z" fill="white"/>
  <path d="M20.252 25.9224V25.0524C20.252 24.6732 20.542 24.3832 20.9212 24.3832H23.9994C24.3786 24.3832 24.6686 24.6732 24.6686 25.0524V28.1306C24.6686 28.5098 24.3786 28.7998 23.9994 28.7998H20.9212C20.542 28.7998 20.252 28.5098 20.252 28.1306V27.2607C20.252 26.8815 20.6312 27.2607 20.252 27.2607V27.0823C20.252 27.4615 20.6312 27.0823 20.252 27.0823V27.4615V28.1309C20.2435 27.6402 20.2438 28.1309 20.2547 27.4615L20.252 27.0823C20.252 26.7031 20.252 27.0823 20.252 26.5023V25.9224C20.252 25.5432 20.252 26.5023 20.252 25.9224ZM21.5904 27.4615H23.3303V25.7216H21.5904V27.4615Z" fill="white"/>
</svg>