<svg xmlns="http://www.w3.org/2000/svg" width="39" height="39" viewBox="0 0 39 39" fill="none">
  <circle cx="19.5" cy="19.5" r="19.5" fill="#4272EC"/>
  <path d="M19.2933 29.5867C13.6321 29.5867 9 24.9547 9 19.2933C9 13.6321 13.6319 9 19.2933 9C24.9546 9 29.5867 13.6319 29.5867 19.2933C29.5867 24.9546 24.9545 29.5867 19.2933 29.5867ZM19.2933 10.4706C14.4407 10.4706 10.4706 14.4408 10.4706 19.2933C10.4706 24.1458 14.4408 28.1161 19.2933 28.1161C24.1458 28.1161 28.1161 24.1458 28.1161 19.2933C28.1161 14.4408 24.1458 10.4706 19.2933 10.4706Z" fill="white"/>
  <path d="M20.4589 23.1163L17.1503 19.8077C17.0033 19.6607 16.9297 19.4767 16.9297 19.293V13.4111C16.9297 13.0067 17.2606 12.6758 17.665 12.6758C18.0693 12.6758 18.4002 13.0067 18.4002 13.4111V18.999L21.4882 22.087C21.7823 22.381 21.7823 22.8222 21.4882 23.1163C21.1942 23.4103 20.753 23.4103 20.4589 23.1163Z" fill="white"/>
</svg>