<svg xmlns="http://www.w3.org/2000/svg" width="39" height="39" viewBox="0 0 39 39" fill="none">
  <circle cx="19.5" cy="19.5" r="19.5" fill="#5986FB"/>
  <path d="M26.4015 10.4572H12.3916C11.7418 10.4572 11.1186 10.7153 10.659 11.1748C10.1995 11.6342 9.94141 12.2575 9.94141 12.9073V21.3665V21.3663C9.94141 22.0161 10.1995 22.6394 10.659 23.0989C11.1186 23.5583 11.7418 23.8165 12.3916 23.8165H15.0777C15.0851 23.828 15.0916 23.8397 15.0994 23.851L18.1292 28.3323C18.4137 28.7531 18.8886 29.0053 19.3965 29.0053C19.9044 29.0053 20.3793 28.7531 20.6638 28.3323L23.6936 23.851C23.7014 23.8397 23.7079 23.828 23.7153 23.8165H26.4014C27.0512 23.8165 27.6745 23.5583 28.134 23.0989C28.5935 22.6394 28.8516 22.0161 28.8516 21.3663V12.9072C28.8516 12.2574 28.5935 11.6341 28.134 11.1746C27.6744 10.7152 27.0512 10.457 26.4014 10.457L26.4015 10.4572ZM23.3865 18.4734H20.207V21.6529H18.586V18.4734H15.4065V16.8525H18.586V13.6729H20.207V16.8525H23.3865V18.4734Z" fill="white"/>
</svg>