<svg width="54" height="38" viewBox="0 0 54 38" fill="none" xmlns="http://www.w3.org/2000/svg">
<path d="M18.2267 0.679643C18.3949 0.477962 18.6033 0.313537 18.8385 0.196851C19.0738 0.0801661 19.3308 0.0137805 19.5931 0.0019268C19.8555 -0.0099269 20.1174 0.0330114 20.3622 0.128004C20.6071 0.222997 20.8294 0.367961 21.0151 0.553653C21.2008 0.739344 21.3457 0.961691 21.4407 1.20652C21.5357 1.45134 21.5787 1.71327 21.5668 1.97561C21.555 2.23795 21.4886 2.49494 21.3719 2.7302C21.2552 2.96546 21.0908 3.17383 20.8891 3.34202L7.30566 16.9414H52.204C52.6886 16.9672 53.145 17.1778 53.479 17.53C53.813 17.8822 53.9991 18.349 53.9991 18.8344C53.9991 19.3197 53.813 19.7866 53.479 20.1388C53.145 20.491 52.6886 20.7016 52.204 20.7273H7.30566L20.9104 34.3108C21.2528 34.6694 21.4439 35.1461 21.4439 35.642C21.4439 36.1378 21.2528 36.6146 20.9104 36.9732C20.7358 37.1483 20.5283 37.2873 20.2999 37.3821C20.0714 37.477 19.8265 37.5258 19.5792 37.5258C19.3319 37.5258 19.087 37.477 18.8585 37.3821C18.6301 37.2873 18.4226 37.1483 18.248 36.9732L1.4218 20.1469C1.24272 19.9746 1.10025 19.7678 1.00294 19.5391C0.905632 19.3103 0.85548 19.0643 0.85548 18.8158C0.85548 18.5672 0.905632 18.3212 1.00294 18.0924C1.10025 17.8637 1.24272 17.6569 1.4218 17.4846L18.2267 0.679643Z" fill="#808080"/>
</svg>
