<svg xmlns="http://www.w3.org/2000/svg" width="12" height="18" viewBox="0 0 12 18" fill="none">
  <path d="M11.1784 8.94992C11.1662 8.58264 11.0196 8.23262 10.7663 7.96639L3.57262 0.472984C3.29687 0.186056 2.91843 0.0204182 2.52055 0.0125141C2.12268 0.00461006 1.73796 0.155119 1.45103 0.43087C1.1641 0.706623 0.998467 1.08503 0.990564 1.48291C0.982661 1.88078 1.13314 2.26551 1.40889 2.55244L7.6003 9.00612L1.40889 15.4598C1.13314 15.7467 0.982661 16.1314 0.990564 16.5293C0.998467 16.9272 1.1641 17.3056 1.45103 17.5814C1.73796 17.8571 2.12268 18.0076 2.52055 17.9997C2.91843 17.9918 3.29687 17.8262 3.57262 17.5392L10.7663 10.0458C10.905 9.90017 11.013 9.72807 11.0838 9.53978C11.1546 9.3515 11.1868 9.1509 11.1784 8.94992Z" fill="#808080"/>
</svg>