<svg width="232" height="82" viewBox="0 0 232 82" fill="none" xmlns="http://www.w3.org/2000/svg">
<g filter="url(#filter0_d_1_457)">
<path d="M38.6926 67.9957C38.613 68.0014 38.5333 68.0014 38.4537 67.9957C33.3178 67.5521 27.9941 65.5387 23.0629 62.1716C18.2341 58.8728 14.1333 54.5331 11.2042 49.619C6.91005 42.4298 6.97261 33.2898 7.00674 27.8296C7.01242 27.3462 7.01242 26.8912 7.01242 26.4703V1.39916C7.01242 0.62564 7.64375 0 8.41727 0H68.7404C69.5139 0 70.1395 0.62564 70.1395 1.39916L70.1339 26.4703C70.1339 26.8912 70.1395 27.3462 70.1395 27.8296C70.1794 33.2898 70.2419 42.4298 65.9478 49.619C63.0129 54.5331 58.9121 58.8728 54.0833 62.1716C49.1521 65.5387 43.8285 67.5578 38.6926 67.9957ZM11.2156 2.79832C10.4421 2.79832 9.81643 3.42396 9.81643 4.19748V26.4703C9.81643 26.9025 9.81074 27.3632 9.81074 27.8524C9.78799 30.5995 9.76524 34.0235 10.243 37.6579C10.8004 41.8895 11.8981 45.3362 13.6044 48.1914C19.1385 57.4736 29.0862 64.276 38.4366 65.1917C38.5276 65.2031 38.6186 65.2031 38.7096 65.1917C48.0487 64.2817 58.0021 57.4793 63.5419 48.1914C65.2425 45.3419 66.3459 41.8952 66.9033 37.6579C67.381 34.0235 67.3583 30.5995 67.3412 27.8524C67.3355 27.3632 67.3355 26.9025 67.3355 26.4703L67.3412 4.19748C67.3412 3.42396 66.7156 2.79832 65.9421 2.79832H11.2156Z" fill="#F1F2FF"/>
</g>
<g filter="url(#filter1_d_1_457)">
<path d="M62.1369 31.0034C62.5464 31.3105 63.1323 31.0204 63.1323 30.5086C63.1323 29.462 63.1209 28.5122 63.1209 27.6932L63.1266 7.62149C63.1266 7.27454 62.8479 6.99585 62.5009 6.99585H59.1168H30.1098H23.9842H20.037H14.6508C14.3039 6.99585 14.0252 7.27454 14.0252 7.62149V19.9694C14.0252 21.0443 14.5314 22.051 15.3902 22.6937L51.3816 49.6076C51.6944 49.8408 51.7172 50.2959 51.4328 50.5632C50.7787 51.1774 50.0791 51.7746 49.3397 52.3377C49.1179 52.5083 48.8108 52.5083 48.589 52.3434L15.0205 27.187C14.611 26.8798 14.0252 27.1699 14.0252 27.6875C14.0252 31.9987 13.6441 40.0467 17.2671 46.2121C21.3167 53.0999 28.267 58.5372 35.4164 60.2947C36.4515 60.545 37.481 60.727 38.5162 60.818C38.556 60.8237 38.5958 60.8237 38.6356 60.818C43.3165 60.3971 48.0771 58.2585 52.1665 55.028C53.1903 54.2146 54.1742 53.3387 55.107 52.4003C56.9441 50.5461 58.5708 48.4587 59.8846 46.2178C61.0847 44.1816 61.8412 41.9407 62.3246 39.6998C62.4327 39.2106 62.5237 38.7215 62.6033 38.2324C62.8138 36.947 62.2962 35.6502 61.2553 34.871L30.7867 12.0806C30.3089 11.7223 30.5592 10.9601 31.162 10.9601H35.1946C35.3311 10.9601 35.4619 11.0056 35.57 11.0853L62.1369 31.0034Z" fill="#F1F2FF"/>
</g>
<path d="M112.259 36.1929C112.259 37.3546 112.047 38.4596 111.622 39.5079C111.225 40.5279 110.63 41.4204 109.837 42.1854C109.043 42.9504 108.052 43.5596 106.862 44.0129C105.672 44.4663 104.312 44.6929 102.782 44.6929C102.017 44.6929 101.322 44.6788 100.699 44.6504C100.104 44.6221 99.4949 44.5654 98.8716 44.4804C98.2766 44.3954 97.6391 44.2679 96.9591 44.0979C96.2791 43.8996 95.4857 43.6304 94.5791 43.2904L94.0691 38.5304C94.4657 38.6721 94.9474 38.8279 95.5141 38.9979C96.1091 39.1396 96.7324 39.2813 97.3841 39.4229C98.0641 39.5646 98.7582 39.6921 99.4666 39.8054C100.203 39.8904 100.912 39.9329 101.592 39.9329C102.272 39.9329 102.909 39.8763 103.504 39.7629C104.127 39.6496 104.666 39.4513 105.119 39.1679C105.572 38.8563 105.927 38.4738 106.182 38.0204C106.465 37.5388 106.607 36.9296 106.607 36.1929C106.607 35.4279 106.097 34.7904 105.077 34.2804C104.057 33.7704 102.484 33.1471 100.359 32.4104C99.5374 32.1271 98.7157 31.7588 97.8941 31.3054C97.1007 30.8521 96.3782 30.2996 95.7266 29.6479C95.1032 28.9963 94.5932 28.2171 94.1966 27.3104C93.7999 26.4038 93.6016 25.3413 93.6016 24.1229C93.6016 22.5363 93.9557 21.2613 94.6641 20.2979C95.4007 19.3346 96.2649 18.5979 97.2566 18.0879C98.2482 17.5496 99.2541 17.1954 100.274 17.0254C101.322 16.8554 102.158 16.7704 102.782 16.7704C103.575 16.7704 104.312 16.8271 104.992 16.9404C105.672 17.0254 106.352 17.1529 107.032 17.3229C107.712 17.4929 108.392 17.7054 109.072 17.9604C109.78 18.2154 110.545 18.4846 111.367 18.7679L110.389 22.7629C109.284 22.5363 108.165 22.2954 107.032 22.0404C105.898 21.7571 104.751 21.6154 103.589 21.6154C102.059 21.6154 100.926 21.8846 100.189 22.4229C99.4807 22.9613 99.1266 23.5279 99.1266 24.1229C99.1266 24.9163 99.4666 25.5821 100.147 26.1204C100.855 26.6304 101.932 27.1404 103.377 27.6504C104.425 28.0188 105.473 28.4154 106.522 28.8404C107.598 29.2371 108.562 29.7613 109.412 30.4129C110.262 31.0363 110.942 31.8154 111.452 32.7504C111.99 33.6571 112.259 34.8046 112.259 36.1929Z" fill="#F1F2FF"/>
<path d="M133.249 30.3704C133.249 31.3904 133.065 32.2829 132.697 33.0479C132.357 33.8129 131.861 34.4646 131.209 35.0029C130.586 35.5413 129.835 35.9663 128.957 36.2779C128.107 36.5613 127.186 36.7313 126.194 36.7879C124.664 36.9013 123.375 36.9863 122.327 37.0429C121.278 37.0996 120.485 37.1421 119.947 37.1704C119.947 37.7088 119.961 38.1621 119.989 38.5304C120.046 38.8704 120.159 39.1538 120.329 39.3804C120.527 39.5788 120.811 39.7204 121.179 39.8054C121.576 39.8904 122.114 39.9329 122.794 39.9329C123.106 39.9329 123.602 39.9046 124.282 39.8479C124.962 39.7913 125.741 39.7204 126.619 39.6354C127.497 39.5221 128.404 39.4088 129.339 39.2954C130.274 39.1821 131.152 39.0688 131.974 38.9554L132.229 43.3329C131.436 43.5029 130.529 43.6729 129.509 43.8429C128.517 44.0129 127.526 44.1688 126.534 44.3104C125.542 44.4238 124.607 44.5229 123.729 44.6079C122.879 44.6929 122.213 44.7354 121.732 44.7354C119.125 44.7354 117.269 44.0838 116.164 42.7804C115.087 41.4771 114.549 39.5929 114.549 37.1279V31.5604C114.549 29.0671 115.087 27.1829 116.164 25.9079C117.241 24.6046 119.082 23.9529 121.689 23.9529H126.152C127.172 23.9529 128.107 24.0946 128.957 24.3779C129.835 24.6329 130.586 25.0296 131.209 25.5679C131.861 26.0779 132.357 26.7438 132.697 27.5654C133.065 28.3588 133.249 29.2938 133.249 30.3704ZM127.894 30.3704C127.894 30.1154 127.866 29.8888 127.809 29.6904C127.752 29.4921 127.625 29.3221 127.427 29.1804C127.257 29.0388 126.973 28.9396 126.577 28.8829C126.208 28.7979 125.712 28.7554 125.089 28.7554H122.752C122.043 28.7554 121.491 28.7979 121.094 28.8829C120.726 28.9679 120.457 29.1238 120.287 29.3504C120.117 29.5771 120.017 29.8888 119.989 30.2854C119.961 30.6538 119.947 31.1354 119.947 31.7304V32.5379L125.004 31.9854C125.684 31.9004 126.222 31.8154 126.619 31.7304C127.016 31.6454 127.299 31.5463 127.469 31.4329C127.667 31.2913 127.781 31.1354 127.809 30.9654C127.866 30.7954 127.894 30.5971 127.894 30.3704Z" fill="#F1F2FF"/>
<path d="M149.303 44.4379V31.6879C149.303 31.0929 149.275 30.6113 149.218 30.2429C149.19 29.8463 149.076 29.5346 148.878 29.3079C148.708 29.0813 148.425 28.9254 148.028 28.8404C147.66 28.7554 147.121 28.7129 146.413 28.7129C145.62 28.7129 144.77 28.7979 143.863 28.9679C142.956 29.1379 142.092 29.2938 141.271 29.4354V44.4379H135.916V24.2079H140.038L140.761 25.0579C141.866 24.8029 142.971 24.5479 144.076 24.2929C145.209 24.0379 146.342 23.9104 147.476 23.9104C150.082 23.9104 151.924 24.5621 153.001 25.8654C154.077 27.1688 154.616 29.0529 154.616 31.5179V44.4379H149.303Z" fill="#F1F2FF"/>
<path d="M171.315 43.8004C170.748 43.9138 170.281 44.0271 169.912 44.1404C169.544 44.2538 169.19 44.3529 168.85 44.4379C168.538 44.5229 168.212 44.5938 167.872 44.6504C167.532 44.7071 167.121 44.7354 166.64 44.7354C164.033 44.7354 162.191 44.0838 161.115 42.7804C160.038 41.4771 159.5 39.5929 159.5 37.1279V28.6704H155.08V24.1654H159.5V18.1729H164.812V24.1654H169.7V28.6704H164.812V36.9579C164.812 37.5529 164.826 38.0488 164.855 38.4454C164.911 38.8138 165.025 39.1113 165.195 39.3379C165.393 39.5646 165.676 39.7204 166.045 39.8054C166.441 39.8904 166.994 39.9329 167.702 39.9329C168.241 39.9329 168.836 39.8479 169.487 39.6779C170.139 39.4796 170.748 39.3096 171.315 39.1679V43.8004Z" fill="#F1F2FF"/>
<path d="M179.031 21.5304H173.718V16.3879H179.073L179.031 21.5304ZM173.718 44.4379V24.1654H179.073V44.4379H173.718Z" fill="#F1F2FF"/>
<path d="M196.086 44.4379V31.6879C196.086 31.0929 196.058 30.6113 196.001 30.2429C195.973 29.8463 195.86 29.5346 195.661 29.3079C195.491 29.0813 195.208 28.9254 194.811 28.8404C194.443 28.7554 193.905 28.7129 193.196 28.7129C192.403 28.7129 191.553 28.7979 190.646 28.9679C189.74 29.1379 188.875 29.2938 188.054 29.4354V44.4379H182.699V24.2079H186.821L187.544 25.0579C188.649 24.8029 189.754 24.5479 190.859 24.2929C191.992 24.0379 193.125 23.9104 194.259 23.9104C196.865 23.9104 198.707 24.5621 199.784 25.8654C200.86 27.1688 201.399 29.0529 201.399 31.5179V44.4379H196.086Z" fill="#F1F2FF"/>
<path d="M223.105 30.3704C223.105 31.3904 222.921 32.2829 222.553 33.0479C222.213 33.8129 221.717 34.4646 221.065 35.0029C220.442 35.5413 219.691 35.9663 218.813 36.2779C217.963 36.5613 217.042 36.7313 216.05 36.7879C214.52 36.9013 213.231 36.9863 212.183 37.0429C211.134 37.0996 210.341 37.1421 209.803 37.1704C209.803 37.7088 209.817 38.1621 209.845 38.5304C209.902 38.8704 210.015 39.1538 210.185 39.3804C210.383 39.5788 210.667 39.7204 211.035 39.8054C211.432 39.8904 211.97 39.9329 212.65 39.9329C212.962 39.9329 213.458 39.9046 214.138 39.8479C214.818 39.7913 215.597 39.7204 216.475 39.6354C217.353 39.5221 218.26 39.4088 219.195 39.2954C220.13 39.1821 221.008 39.0688 221.83 38.9554L222.085 43.3329C221.292 43.5029 220.385 43.6729 219.365 43.8429C218.373 44.0129 217.382 44.1688 216.39 44.3104C215.398 44.4238 214.463 44.5229 213.585 44.6079C212.735 44.6929 212.069 44.7354 211.588 44.7354C208.981 44.7354 207.125 44.0838 206.02 42.7804C204.943 41.4771 204.405 39.5929 204.405 37.1279V31.5604C204.405 29.0671 204.943 27.1829 206.02 25.9079C207.097 24.6046 208.938 23.9529 211.545 23.9529H216.008C217.028 23.9529 217.963 24.0946 218.813 24.3779C219.691 24.6329 220.442 25.0296 221.065 25.5679C221.717 26.0779 222.213 26.7438 222.553 27.5654C222.921 28.3588 223.105 29.2938 223.105 30.3704ZM217.75 30.3704C217.75 30.1154 217.722 29.8888 217.665 29.6904C217.608 29.4921 217.481 29.3221 217.283 29.1804C217.113 29.0388 216.829 28.9396 216.433 28.8829C216.064 28.7979 215.568 28.7554 214.945 28.7554H212.608C211.899 28.7554 211.347 28.7979 210.95 28.8829C210.582 28.9679 210.313 29.1238 210.143 29.3504C209.973 29.5771 209.873 29.8888 209.845 30.2854C209.817 30.6538 209.803 31.1354 209.803 31.7304V32.5379L214.86 31.9854C215.54 31.9004 216.078 31.8154 216.475 31.7304C216.872 31.6454 217.155 31.5463 217.325 31.4329C217.523 31.2913 217.637 31.1354 217.665 30.9654C217.722 30.7954 217.75 30.5971 217.75 30.3704Z" fill="#F1F2FF"/>
<path d="M226.437 44.4379V16.3879H231.792V44.4379H226.437Z" fill="#F1F2FF"/>
<defs>
<filter id="filter0_d_1_457" x="0.199999" y="0" width="76.7478" height="81.6" filterUnits="userSpaceOnUse" color-interpolation-filters="sRGB">
<feFlood flood-opacity="0" result="BackgroundImageFix"/>
<feColorMatrix in="SourceAlpha" type="matrix" values="0 0 0 0 0 0 0 0 0 0 0 0 0 0 0 0 0 0 127 0" result="hardAlpha"/>
<feOffset dy="6.8"/>
<feGaussianBlur stdDeviation="3.4"/>
<feComposite in2="hardAlpha" operator="out"/>
<feColorMatrix type="matrix" values="0 0 0 0 0 0 0 0 0 0 0 0 0 0 0 0 0 0 0.25 0"/>
<feBlend mode="normal" in2="BackgroundImageFix" result="effect1_dropShadow_1_457"/>
<feBlend mode="normal" in="SourceGraphic" in2="effect1_dropShadow_1_457" result="shape"/>
</filter>
<filter id="filter1_d_1_457" x="7.21367" y="6.99585" width="62.7186" height="67.4264" filterUnits="userSpaceOnUse" color-interpolation-filters="sRGB">
<feFlood flood-opacity="0" result="BackgroundImageFix"/>
<feColorMatrix in="SourceAlpha" type="matrix" values="0 0 0 0 0 0 0 0 0 0 0 0 0 0 0 0 0 0 127 0" result="hardAlpha"/>
<feOffset dy="6.8"/>
<feGaussianBlur stdDeviation="3.4"/>
<feComposite in2="hardAlpha" operator="out"/>
<feColorMatrix type="matrix" values="0 0 0 0 0 0 0 0 0 0 0 0 0 0 0 0 0 0 0.25 0"/>
<feBlend mode="normal" in2="BackgroundImageFix" result="effect1_dropShadow_1_457"/>
<feBlend mode="normal" in="SourceGraphic" in2="effect1_dropShadow_1_457" result="shape"/>
</filter>
</defs>
</svg>
